<svg width="99" height="34" viewBox="0 0 99 34" fill="none" xmlns="http://www.w3.org/2000/svg">
<g id="Group 13">
<g id="Logo">
<path id="Logo_2" fill-rule="evenodd" clip-rule="evenodd" d="M69.2616 5.00003L69.3992 5.05951C70.2729 5.42385 71.0461 6.29752 71.4774 7.39798C71.9012 8.49843 71.9087 9.63978 71.496 10.5246L71.4291 10.6622L71.2841 10.6064C70.4253 10.283 69.6483 9.40184 69.2096 8.24562C68.7746 7.10056 68.7672 5.9369 69.191 5.13387L69.2616 5.00003ZM75.1764 9.17139C75.9088 8.01145 76.1727 6.73254 75.8865 5.75849L75.8419 5.6135L75.6931 5.64324C74.6559 5.85144 73.6112 6.6396 72.9011 7.75121C72.1873 8.86653 71.9271 10.1194 72.1836 11.1827L72.2208 11.3314L72.3732 11.3054C73.3881 11.1418 74.4365 10.3462 75.1764 9.17139ZM79.0915 11.1824C78.3888 10.5504 77.266 10.227 76.0949 10.3125C74.9164 10.4017 73.8829 10.8813 73.262 11.636L73.1654 11.755L73.2769 11.8628C73.8606 12.4242 74.8049 12.7402 75.8607 12.7402C76.0057 12.7402 76.1507 12.7327 76.2994 12.7216C77.5188 12.6249 78.571 12.1305 79.1175 11.4018L79.2104 11.2791L79.0915 11.1824ZM78.1062 15.9225C76.7938 13.6472 74.7379 12.5579 72.1169 12.6174C71.5555 12.6286 71.2804 12.5022 71.0313 11.9928C70.4662 10.8366 69.5702 9.96294 68.098 9.11158C65.9715 8.07433 63.5661 8.11522 61.2462 9.72501C59.0973 11.2158 58.5769 13.413 58.6661 15.837C58.8222 20.1236 60.3986 24.0198 62.0976 27.8676C62.3504 28.4402 62.8783 28.5703 63.4397 28.4773C67.2875 27.8416 71.1057 27.0943 74.6338 25.3321C75.9611 24.6704 77.2994 23.9454 78.0839 22.6219C79.3925 20.421 79.3814 18.1308 78.1062 15.9225ZM66.0941 23.8859C65.8302 24.3804 65.5551 24.8711 65.2762 25.3581C65.0569 25.7411 64.5885 25.8563 64.2055 25.637C63.8338 25.4251 63.6999 24.9715 63.9007 24.5923C63.995 24.4117 64.0952 24.2351 64.1955 24.0581L64.1957 24.0579L64.196 24.0573L64.1961 24.0572L64.1962 24.057L64.1962 24.0569C64.2341 23.9901 64.272 23.9233 64.3096 23.8562C64.3624 23.7621 64.414 23.6675 64.4656 23.573C64.5486 23.4209 64.6315 23.2691 64.7186 23.1201C64.9379 22.7483 65.3915 22.6256 65.767 22.8264C66.1536 23.0383 66.3023 23.4993 66.0941 23.8859ZM65.6369 18.2015C65.5589 18.3505 65.4767 18.4968 65.3946 18.6428L65.3938 18.6442C65.3431 18.7345 65.2924 18.8246 65.2428 18.9153C65.1946 19.001 65.1473 19.0868 65.1001 19.1723C65.0164 19.3242 64.933 19.4756 64.845 19.6254C64.6219 20.0046 64.1572 20.1236 63.7743 19.9079C63.4025 19.696 63.2612 19.2424 63.4657 18.8632C63.7222 18.3836 63.9862 17.9078 64.2576 17.4393C64.4769 17.0564 64.9454 16.9374 65.3283 17.1568C65.7001 17.3687 65.8376 17.8223 65.6369 18.2015ZM65.1796 12.5245C65.1016 12.6735 65.0194 12.8197 64.9374 12.9657L64.9373 12.9657L64.9373 12.9658L64.9372 12.966C64.8862 13.0566 64.8353 13.1472 64.7855 13.2383C64.7381 13.3226 64.6916 13.4074 64.6452 13.492C64.5607 13.6461 64.4765 13.7996 64.3877 13.9484C64.1646 14.3276 63.6999 14.4465 63.317 14.2272C62.9452 14.0153 62.8077 13.5617 63.0121 13.1825C63.2687 12.7029 63.5326 12.2308 63.804 11.7586C64.0196 11.3868 64.4769 11.2642 64.8524 11.4649C65.2391 11.6768 65.3841 12.1341 65.1796 12.5245ZM71.1614 21.2798C71.0835 21.4288 71.0013 21.575 70.9192 21.721L70.9192 21.7211L70.9191 21.7211L70.9191 21.7212C70.8681 21.8119 70.8172 21.9025 70.7674 21.9936C70.7202 22.0774 70.674 22.1616 70.6279 22.2457L70.6271 22.2472C70.5425 22.4014 70.4584 22.5548 70.3696 22.7037C70.1465 23.0829 69.6818 23.2018 69.2988 22.9825C68.9271 22.7706 68.7895 22.317 68.994 21.9378C69.2505 21.4582 69.5145 20.9861 69.7859 20.5139C70.0015 20.1421 70.4588 20.0195 70.8343 20.2202C71.2209 20.4321 71.3659 20.8894 71.1614 21.2798ZM70.7116 15.5805C70.4513 16.0675 70.1837 16.5508 69.9048 17.0304C69.6892 17.4022 69.2282 17.5174 68.8527 17.3129C68.4661 17.101 68.3285 16.6437 68.533 16.2534C68.6109 16.1044 68.6931 15.9583 68.7751 15.8123L68.7752 15.8121L68.7761 15.8106C68.8268 15.7204 68.8775 15.6302 68.9271 15.5396C68.9745 15.4553 69.021 15.3705 69.0674 15.2859L69.0675 15.2857L69.0676 15.2855L69.0676 15.2854L69.0677 15.2854C69.1521 15.1314 69.2362 14.9781 69.3249 14.8295C69.5442 14.4614 70.0015 14.3425 70.377 14.5469C70.7599 14.7514 70.9124 15.205 70.7116 15.5805ZM76.2325 18.6662C75.9759 19.1458 75.712 19.6217 75.4406 20.0901C75.2212 20.473 74.7528 20.592 74.3699 20.3764C73.9869 20.1607 73.8568 19.7034 74.0687 19.3094C74.1423 19.1711 74.22 19.0328 74.2976 18.8945C74.3493 18.8023 74.4011 18.7101 74.4516 18.6179C74.4999 18.5321 74.5471 18.4464 74.5943 18.3608C74.678 18.2089 74.7615 18.0576 74.8494 17.9078C75.0725 17.5248 75.5372 17.4059 75.9202 17.6215C76.2919 17.8334 76.4332 18.287 76.2325 18.6662ZM27.4706 26.1242V10.9558H31.943C32.2479 10.9558 32.5341 10.9 32.8018 10.7847C33.0695 10.6695 33.3037 10.5133 33.5082 10.3163C33.7127 10.1156 33.8688 9.88505 33.9841 9.61737C34.0993 9.34969 34.1551 9.06343 34.1551 8.75857C34.1551 8.45372 34.0993 8.16373 33.9841 7.89234C33.8725 7.62094 33.7127 7.383 33.5082 7.18596C33.3037 6.98892 33.0695 6.82906 32.8018 6.71009C32.5341 6.59112 32.2479 6.53164 31.943 6.53164H18.5777C18.2729 6.53164 17.9866 6.59112 17.7189 6.70266C17.4512 6.81791 17.217 6.97405 17.02 7.17109C16.8192 7.37185 16.6668 7.60235 16.5515 7.87003C16.4363 8.13771 16.3805 8.42397 16.3805 8.72883C16.3805 9.03369 16.4363 9.32367 16.5515 9.59507C16.6668 9.86646 16.8229 10.1044 17.02 10.3014C17.2207 10.4985 17.4512 10.6583 17.7189 10.7773C17.9866 10.8963 18.2729 10.9558 18.5777 10.9558H23.0502V26.1242C23.0502 26.4327 23.1059 26.719 23.2175 26.983C23.3327 27.2469 23.4889 27.4774 23.6859 27.6708C23.8867 27.8604 24.1172 28.0165 24.3848 28.128C24.6525 28.2433 24.9388 28.2991 25.2436 28.2991C25.5485 28.2991 25.8385 28.2433 26.1099 28.128C26.3813 28.0165 26.6192 27.8641 26.8162 27.6708C27.0133 27.4774 27.1732 27.2507 27.2921 26.983C27.4111 26.7153 27.4706 26.429 27.4706 26.1242ZM47.223 26.0091C47.223 26.3326 47.1635 26.6337 47.0408 26.9126C46.9219 27.1914 46.7546 27.4293 46.5426 27.6338C46.3307 27.8383 46.0891 28.0019 45.8102 28.1208C45.5314 28.2398 45.2377 28.303 44.9254 28.303C44.602 28.303 44.2934 28.2435 44.0034 28.1208C43.7134 28.0019 43.4606 27.8383 43.245 27.6338C43.0294 27.4293 42.8546 27.1877 42.7208 26.9126C42.587 26.6374 42.5238 26.3363 42.5238 26.0091V18.2428C42.4977 17.5698 42.271 17.0233 41.836 16.607C41.401 16.1906 40.8545 15.9824 40.1927 15.9824C39.8804 15.9824 39.583 16.0381 39.2968 16.146C39.0142 16.2538 38.7651 16.4062 38.5458 16.5995C38.3301 16.7928 38.1554 17.0196 38.0327 17.2873C37.9063 17.5513 37.8431 17.8412 37.8431 18.1535V18.2428V26.0091C37.8431 26.3326 37.7836 26.6337 37.6609 26.9126C37.542 27.1914 37.3747 27.4293 37.1628 27.6338C36.9509 27.8383 36.7092 28.0019 36.4304 28.1208C36.1553 28.2398 35.8578 28.303 35.5455 28.303C35.2184 28.303 34.9135 28.2435 34.6235 28.1208C34.3336 28.0019 34.0807 27.8383 33.8651 27.6338C33.6495 27.4293 33.4748 27.1877 33.3409 26.9126C33.2071 26.6374 33.1439 26.3363 33.1439 26.0091V18.187C33.1439 17.2353 33.326 16.343 33.6941 15.5065C34.0622 14.67 34.5603 13.9376 35.1924 13.313C35.8244 12.6884 36.5605 12.194 37.4044 11.8334C38.2483 11.4727 39.1443 11.2906 40.0961 11.2906C41.0106 11.2906 41.8732 11.4542 42.6873 11.7776C43.4978 12.101 44.2191 12.5472 44.8436 13.1123C45.4942 12.5472 46.2229 12.101 47.0297 11.7776C47.8364 11.4542 48.6915 11.2906 49.5949 11.2906C50.5467 11.2906 51.4389 11.469 52.2754 11.8222C53.1119 12.1791 53.8406 12.6587 54.4615 13.2684C55.0823 13.8781 55.5805 14.5882 55.9597 15.4098C56.3389 16.2277 56.5471 17.1014 56.5843 18.0271C56.5954 18.0755 56.6029 18.1461 56.6029 18.2428V26.0091C56.6029 26.3326 56.5434 26.6337 56.4207 26.9126C56.3017 27.1914 56.1344 27.4293 55.9225 27.6338C55.7106 27.8383 55.469 28.0019 55.1901 28.1208C54.9113 28.2398 54.6176 28.303 54.3053 28.303C53.9819 28.303 53.6733 28.2435 53.3833 28.1208C53.0933 28.0019 52.8405 27.8383 52.6249 27.6338C52.4093 27.4293 52.2345 27.1877 52.1007 26.9126C51.9668 26.6374 51.9036 26.3363 51.9036 26.0091V18.2428C51.8925 17.9044 51.8256 17.5996 51.7066 17.3208C51.5876 17.0456 51.4203 16.8077 51.2084 16.607C50.9965 16.4099 50.7511 16.2538 50.4686 16.146C50.186 16.0381 49.8812 15.9824 49.5577 15.9824C49.2454 15.9824 48.948 16.0381 48.6729 16.1534C48.3941 16.2686 48.1524 16.4211 47.9405 16.6144C47.7286 16.8077 47.5576 17.0345 47.4275 17.3022C47.2936 17.5661 47.223 17.8487 47.2118 18.1498V18.239V26.0091H47.223ZM14.4881 15.4285C14.2315 15.317 13.9527 15.2612 13.6516 15.2612V15.2687H6.45029H6.36479C6.08596 15.2575 5.82199 15.1906 5.57662 15.0679C5.33125 14.9452 5.11934 14.7891 4.94089 14.5921C4.76244 14.395 4.62116 14.1682 4.51335 13.9117C4.40553 13.6552 4.35348 13.3801 4.35348 13.0901C4.35348 12.7852 4.40553 12.5064 4.50591 12.2424C4.60629 11.9785 4.74757 11.7517 4.93345 11.5547C5.11934 11.3576 5.33869 11.2052 5.59521 11.0937C5.85174 10.9821 6.138 10.9189 6.45029 10.9078H13.6553C13.9564 10.9078 14.2353 10.8446 14.4918 10.7219C14.7483 10.5992 14.9714 10.4356 15.161 10.2349C15.3543 10.0341 15.503 9.79988 15.6145 9.5322C15.7261 9.26452 15.7818 8.97825 15.7818 8.67712C15.7818 8.38713 15.7261 8.11202 15.6145 7.85549C15.503 7.59897 15.3506 7.37219 15.1573 7.17886C14.9677 6.98182 14.7446 6.82939 14.4881 6.71786C14.2315 6.60633 13.9527 6.55056 13.6516 6.55056H6.44658C6.35735 6.55056 6.29043 6.55428 6.24582 6.56543C5.38702 6.60261 4.57655 6.79222 3.81813 7.1454C3.05971 7.49859 2.39795 7.95959 1.83285 8.53584C1.27147 9.11209 0.82534 9.785 0.494461 10.562C0.163581 11.339 0 12.1681 0 13.0492C0 13.8857 0.152428 14.6776 0.453565 15.4285C0.754703 16.1758 1.16737 16.8524 1.69158 17.4547C1.16737 18.0347 0.754703 18.7002 0.453565 19.4549C0.152428 20.2096 0 21.0126 0 21.8603C0 22.7414 0.167299 23.5741 0.501896 24.3623C0.836493 25.143 1.29378 25.8271 1.87375 26.4145C2.45743 27.0019 3.13406 27.4629 3.91107 27.8049C4.68808 28.1432 5.51714 28.3143 6.39825 28.3143H13.659C13.9601 28.3143 14.239 28.2511 14.4955 28.1284C14.752 28.0057 14.9751 27.8421 15.1647 27.6414C15.358 27.4406 15.5067 27.2064 15.6183 26.9387C15.7298 26.671 15.7856 26.3848 15.7856 26.0836C15.7856 25.7936 15.7298 25.5185 15.6183 25.262C15.5067 25.0018 15.3543 24.7787 15.1647 24.5816C14.9751 24.3846 14.752 24.2322 14.4955 24.1206C14.239 24.0091 13.9601 23.9533 13.659 23.9533H6.45401H6.3685C6.07852 23.9533 5.81084 23.8976 5.56547 23.7786C5.3201 23.6634 5.10819 23.5035 4.92974 23.3027C4.75128 23.102 4.61001 22.8715 4.50963 22.6075C4.40553 22.3473 4.3572 22.0684 4.3572 21.7785C4.3572 21.165 4.54681 20.6557 4.93345 20.2542C5.3201 19.8527 5.82571 19.6408 6.45029 19.6185H13.6516C13.9527 19.6185 14.2315 19.5552 14.4881 19.4326C14.7446 19.3099 14.9677 19.1463 15.1573 18.9455C15.3506 18.7448 15.4993 18.5106 15.6108 18.2429C15.7224 17.9752 15.7781 17.6889 15.7781 17.3878C15.7781 17.0978 15.7224 16.8227 15.6108 16.5662C15.4993 16.3097 15.3469 16.0866 15.1573 15.8895C14.9677 15.6925 14.7446 15.5401 14.4881 15.4285ZM87.4675 23.6071C87.8058 23.6071 88.1144 23.6741 88.397 23.8079C88.6795 23.9417 88.9249 24.1128 89.1294 24.3321C89.3338 24.5477 89.4937 24.8005 89.609 25.0905C89.7242 25.3805 89.78 25.6854 89.78 26.0125C89.78 26.3397 89.7242 26.6408 89.609 26.9234C89.4937 27.2059 89.3338 27.4513 89.1294 27.6558C88.9249 27.8602 88.6795 28.0201 88.397 28.1354C88.1144 28.2506 87.8021 28.3064 87.4675 28.3064H87.3783C86.5604 28.2952 85.7871 28.1465 85.0584 27.864C84.3298 27.5814 83.694 27.191 83.1512 26.6892C82.6084 26.191 82.1809 25.5887 81.8686 24.8935C81.5563 24.1945 81.4002 23.4324 81.4002 22.5996V7.36801C81.4002 7.04085 81.4596 6.736 81.5823 6.44601C81.7013 6.15603 81.8649 5.90694 82.0694 5.69503C82.2738 5.48312 82.5118 5.31953 82.7832 5.19685C83.0546 5.07788 83.3445 5.0184 83.6606 5.0184C83.9877 5.0184 84.2963 5.07788 84.59 5.19685C84.8837 5.31582 85.1439 5.48312 85.367 5.69503C85.5901 5.90694 85.7685 6.15603 85.8986 6.44601C86.0325 6.736 86.0957 7.04085 86.0957 7.36801V22.5922C86.0957 22.9528 86.2295 23.2131 86.4935 23.3692C86.7574 23.5291 87.0809 23.6071 87.4675 23.6071ZM97.617 23.8079C97.3344 23.6741 97.0259 23.6071 96.6876 23.6071C96.3009 23.6071 95.9775 23.5291 95.7135 23.3692C95.4496 23.2131 95.3157 22.9528 95.3157 22.5922V7.36801C95.3157 7.04085 95.2525 6.736 95.1187 6.44601C94.9885 6.15603 94.8101 5.90694 94.587 5.69503C94.364 5.48312 94.1037 5.31582 93.81 5.19685C93.5163 5.07788 93.2077 5.0184 92.8806 5.0184C92.5646 5.0184 92.2746 5.07788 92.0032 5.19685C91.7318 5.31953 91.4939 5.48312 91.2894 5.69503C91.0849 5.90694 90.9213 6.15603 90.8024 6.44601C90.6797 6.736 90.6202 7.04085 90.6202 7.36801V22.5996C90.6202 23.4324 90.7763 24.1945 91.0886 24.8935C91.4009 25.5887 91.8285 26.191 92.3713 26.6892C92.914 27.191 93.5498 27.5814 94.2785 27.864C95.0071 28.1465 95.7804 28.2952 96.5983 28.3064H96.6876C97.0259 28.3064 97.3344 28.2506 97.617 28.1354C97.8996 28.0201 98.1449 27.8602 98.3494 27.6558C98.5539 27.4513 98.7137 27.2059 98.829 26.9234C98.9442 26.6408 99 26.3397 99 26.0125C99 25.6854 98.9442 25.3805 98.829 25.0905C98.7137 24.8005 98.5539 24.5477 98.3494 24.3321C98.1449 24.1128 97.8996 23.9417 97.617 23.8079Z" fill="white"/>
</g>
</g>
</svg>
